# xmcd CD database file
#
# Track frame offsets:
#	150
#	27115
#	54402
#	68745
#	92525
#	108647
#	121337
#	141295
#	165335
#	186237
#	218380
#	240637
#	263857
#
# Disc length: 3800 seconds
#
# Revision: 0
# Processed by: cddbd v1.5PL3 Copyright (c) Steve Scherf et al.
# Submitted via: CDex 1.60beta1
#
DISCID=ab0ed60d
DTITLE=The Dave McKenna Quartet - The Dave McKenna Quartet Featuring Zoot Sims
DYEAR=1974
DGENRE=Jazz
TTITLE0=Limehouse Blues
TTITLE1=I Cover The Waterfront
TTITLE2='Deed I Do
TTITLE3=Grooveyard
TTITLE4=One Good Turn
TTITLE5=Dave's Tune
TTITLE6=Linger Awile
TTITLE7=There'll Be Some Changes Made
TTITLE8=Wherever There's Love
TTITLE9=I Cover The Waterfront
TTITLE10=Grooveyard
TTITLE11=One Good Turn
TTITLE12=Wherever There's Love
EXTD=YEAR: 1974
EXTT0=
EXTT1=
EXTT2=
EXTT3=
EXTT4=
EXTT5=
EXTT6=
EXTT7=
EXTT8=
EXTT9=
EXTT10=
EXTT11=
EXTT12=
PLAYORDER=
